<mxfile host="Electron" modified="2024-02-27T15:36:42.228Z" agent="Mozilla/5.0 (Windows NT 10.0; Win64; x64) AppleWebKit/537.36 (KHTML, like Gecko) draw.io/23.1.5 Chrome/120.0.6099.109 Electron/28.1.0 Safari/537.36" etag="YF2RMsrXOvu6GKXDsF1J" version="23.1.5" type="device">
  <diagram name="Page-1" id="s-HMXYgOpkfJJTglPWlI">
    <mxGraphModel dx="1260" dy="789" grid="1" gridSize="10" guides="1" tooltips="1" connect="1" arrows="1" fold="1" page="0" pageScale="1" pageWidth="850" pageHeight="1100" math="0" shadow="0">
      <root>
        <mxCell id="0" />
        <mxCell id="1" parent="0" />
        <mxCell id="BHsIzKDb-GIREQ4QsG7Z-5" value="ExampleClass" style="swimlane;fontStyle=1;align=center;verticalAlign=top;childLayout=stackLayout;horizontal=1;startSize=26;horizontalStack=0;resizeParent=1;resizeParentMax=0;resizeLast=0;collapsible=1;marginBottom=0;whiteSpace=wrap;html=1;" parent="1" vertex="1">
          <mxGeometry x="1360" width="330" height="200" as="geometry">
            <mxRectangle x="345" y="320" width="120" height="30" as="alternateBounds" />
          </mxGeometry>
        </mxCell>
        <mxCell id="BHsIzKDb-GIREQ4QsG7Z-6" value="&lt;div&gt;- privateVar: std::string&lt;br&gt;&lt;/div&gt;&lt;div&gt;- privateVar1: size_t&lt;/div&gt;&lt;div&gt;+ publicVar: char&lt;/div&gt;&lt;div&gt;+ publicVar1: std::vector&amp;lt;int&amp;gt;&lt;br&gt;&lt;/div&gt;" style="text;strokeColor=none;fillColor=none;align=left;verticalAlign=top;spacingLeft=4;spacingRight=4;overflow=hidden;rotatable=0;points=[[0,0.5],[1,0.5]];portConstraint=eastwest;whiteSpace=wrap;html=1;" parent="BHsIzKDb-GIREQ4QsG7Z-5" vertex="1">
          <mxGeometry y="26" width="330" height="64" as="geometry" />
        </mxCell>
        <mxCell id="BHsIzKDb-GIREQ4QsG7Z-7" value="" style="line;strokeWidth=1;fillColor=none;align=left;verticalAlign=middle;spacingTop=-1;spacingLeft=3;spacingRight=3;rotatable=0;labelPosition=right;points=[];portConstraint=eastwest;strokeColor=inherit;" parent="BHsIzKDb-GIREQ4QsG7Z-5" vertex="1">
          <mxGeometry y="90" width="330" height="20" as="geometry" />
        </mxCell>
        <mxCell id="BHsIzKDb-GIREQ4QsG7Z-8" value="&lt;div&gt;- privateMethod (int): void&lt;/div&gt;&lt;div&gt;- privateMethod1 (int&amp;amp;): int*&lt;/div&gt;&lt;div&gt;+ ExampleClass(std::string, size_t, char, std::vector&amp;lt;int&amp;gt;)&lt;br&gt;&lt;/div&gt;&lt;div&gt;+ publicMethod (std::string): std::string&lt;/div&gt;&lt;div&gt;+ publicMethod1 (char): void&amp;nbsp; &lt;br&gt;&lt;/div&gt;" style="text;strokeColor=none;fillColor=none;align=left;verticalAlign=top;spacingLeft=4;spacingRight=4;overflow=hidden;rotatable=0;points=[[0,0.5],[1,0.5]];portConstraint=eastwest;whiteSpace=wrap;html=1;" parent="BHsIzKDb-GIREQ4QsG7Z-5" vertex="1">
          <mxGeometry y="110" width="330" height="90" as="geometry" />
        </mxCell>
        <mxCell id="2RG2JbtTriZIpNJXNHU2-1" value="Bank" style="swimlane;fontStyle=1;align=center;verticalAlign=top;childLayout=stackLayout;horizontal=1;startSize=26;horizontalStack=0;resizeParent=1;resizeParentMax=0;resizeLast=0;collapsible=1;marginBottom=0;whiteSpace=wrap;html=1;" parent="1" vertex="1">
          <mxGeometry x="320" y="980" width="380" height="320" as="geometry" />
        </mxCell>
        <mxCell id="K2jsW3WkfBgGo3mtC9Qz-7" value="- kundenID_gen: uint&amp;nbsp;&amp;nbsp;&amp;nbsp;&amp;nbsp;&amp;nbsp;&amp;nbsp;&amp;nbsp; // generator fuer kundenID" style="text;strokeColor=none;fillColor=none;align=left;verticalAlign=top;spacingLeft=4;spacingRight=4;overflow=hidden;rotatable=0;points=[[0,0.5],[1,0.5]];portConstraint=eastwest;whiteSpace=wrap;html=1;" parent="2RG2JbtTriZIpNJXNHU2-1" vertex="1">
          <mxGeometry y="26" width="380" height="26" as="geometry" />
        </mxCell>
        <mxCell id="2RG2JbtTriZIpNJXNHU2-2" value="- kunden: std::vector&amp;lt;Bankkunde&amp;gt;" style="text;strokeColor=none;fillColor=none;align=left;verticalAlign=top;spacingLeft=4;spacingRight=4;overflow=hidden;rotatable=0;points=[[0,0.5],[1,0.5]];portConstraint=eastwest;whiteSpace=wrap;html=1;" parent="2RG2JbtTriZIpNJXNHU2-1" vertex="1">
          <mxGeometry y="52" width="380" height="26" as="geometry" />
        </mxCell>
        <mxCell id="2RG2JbtTriZIpNJXNHU2-58" value="- automaten: std::vector&amp;lt;Bankautomat&amp;gt;" style="text;strokeColor=none;fillColor=none;align=left;verticalAlign=top;spacingLeft=4;spacingRight=4;overflow=hidden;rotatable=0;points=[[0,0.5],[1,0.5]];portConstraint=eastwest;whiteSpace=wrap;html=1;" parent="2RG2JbtTriZIpNJXNHU2-1" vertex="1">
          <mxGeometry y="78" width="380" height="26" as="geometry" />
        </mxCell>
        <mxCell id="2RG2JbtTriZIpNJXNHU2-3" value="" style="line;strokeWidth=1;fillColor=none;align=left;verticalAlign=middle;spacingTop=-1;spacingLeft=3;spacingRight=3;rotatable=0;labelPosition=right;points=[];portConstraint=eastwest;strokeColor=inherit;" parent="2RG2JbtTriZIpNJXNHU2-1" vertex="1">
          <mxGeometry y="104" width="380" height="8" as="geometry" />
        </mxCell>
        <mxCell id="2RG2JbtTriZIpNJXNHU2-4" value="+ kundeAnlegen(string, string): void" style="text;strokeColor=none;fillColor=none;align=left;verticalAlign=top;spacingLeft=4;spacingRight=4;overflow=hidden;rotatable=0;points=[[0,0.5],[1,0.5]];portConstraint=eastwest;whiteSpace=wrap;html=1;" parent="2RG2JbtTriZIpNJXNHU2-1" vertex="1">
          <mxGeometry y="112" width="380" height="26" as="geometry" />
        </mxCell>
        <mxCell id="K2jsW3WkfBgGo3mtC9Qz-6" value="+ kundeLoeschen(int): void" style="text;strokeColor=none;fillColor=none;align=left;verticalAlign=top;spacingLeft=4;spacingRight=4;overflow=hidden;rotatable=0;points=[[0,0.5],[1,0.5]];portConstraint=eastwest;whiteSpace=wrap;html=1;" parent="2RG2JbtTriZIpNJXNHU2-1" vertex="1">
          <mxGeometry y="138" width="380" height="26" as="geometry" />
        </mxCell>
        <mxCell id="K2jsW3WkfBgGo3mtC9Qz-9" value="+ automatAnlegen(uint): void" style="text;strokeColor=none;fillColor=none;align=left;verticalAlign=top;spacingLeft=4;spacingRight=4;overflow=hidden;rotatable=0;points=[[0,0.5],[1,0.5]];portConstraint=eastwest;whiteSpace=wrap;html=1;" parent="2RG2JbtTriZIpNJXNHU2-1" vertex="1">
          <mxGeometry y="164" width="380" height="26" as="geometry" />
        </mxCell>
        <mxCell id="K2jsW3WkfBgGo3mtC9Qz-11" value="+ automatLoeschen(uint): void" style="text;strokeColor=none;fillColor=none;align=left;verticalAlign=top;spacingLeft=4;spacingRight=4;overflow=hidden;rotatable=0;points=[[0,0.5],[1,0.5]];portConstraint=eastwest;whiteSpace=wrap;html=1;" parent="2RG2JbtTriZIpNJXNHU2-1" vertex="1">
          <mxGeometry y="190" width="380" height="26" as="geometry" />
        </mxCell>
        <mxCell id="K2jsW3WkfBgGo3mtC9Qz-13" value="+ getKunde(uint): Bankkunde // ueberladung (ueber kundenID)" style="text;strokeColor=none;fillColor=none;align=left;verticalAlign=top;spacingLeft=4;spacingRight=4;overflow=hidden;rotatable=0;points=[[0,0.5],[1,0.5]];portConstraint=eastwest;whiteSpace=wrap;html=1;" parent="2RG2JbtTriZIpNJXNHU2-1" vertex="1">
          <mxGeometry y="216" width="380" height="26" as="geometry" />
        </mxCell>
        <mxCell id="K2jsW3WkfBgGo3mtC9Qz-12" value="&lt;div&gt;+ getKunde(int): Bankkunde&lt;/div&gt;" style="text;strokeColor=none;fillColor=none;align=left;verticalAlign=top;spacingLeft=4;spacingRight=4;overflow=hidden;rotatable=0;points=[[0,0.5],[1,0.5]];portConstraint=eastwest;whiteSpace=wrap;html=1;" parent="2RG2JbtTriZIpNJXNHU2-1" vertex="1">
          <mxGeometry y="242" width="380" height="26" as="geometry" />
        </mxCell>
        <mxCell id="K2jsW3WkfBgGo3mtC9Qz-14" value="+ getAutomat(uint): Bankautomat&amp;nbsp; // ueberladung (ueber automatID)" style="text;strokeColor=none;fillColor=none;align=left;verticalAlign=top;spacingLeft=4;spacingRight=4;overflow=hidden;rotatable=0;points=[[0,0.5],[1,0.5]];portConstraint=eastwest;whiteSpace=wrap;html=1;" parent="2RG2JbtTriZIpNJXNHU2-1" vertex="1">
          <mxGeometry y="268" width="380" height="26" as="geometry" />
        </mxCell>
        <mxCell id="K2jsW3WkfBgGo3mtC9Qz-15" value="+ getAutomat(int): Bankautomat" style="text;strokeColor=none;fillColor=none;align=left;verticalAlign=top;spacingLeft=4;spacingRight=4;overflow=hidden;rotatable=0;points=[[0,0.5],[1,0.5]];portConstraint=eastwest;whiteSpace=wrap;html=1;" parent="2RG2JbtTriZIpNJXNHU2-1" vertex="1">
          <mxGeometry y="294" width="380" height="26" as="geometry" />
        </mxCell>
        <mxCell id="2RG2JbtTriZIpNJXNHU2-5" value="Bankkunde" style="swimlane;fontStyle=1;align=center;verticalAlign=top;childLayout=stackLayout;horizontal=1;startSize=26;horizontalStack=0;resizeParent=1;resizeParentMax=0;resizeLast=0;collapsible=1;marginBottom=0;whiteSpace=wrap;html=1;" parent="1" vertex="1">
          <mxGeometry x="790" y="850" width="250" height="580" as="geometry" />
        </mxCell>
        <mxCell id="K2jsW3WkfBgGo3mtC9Qz-4" value="- kundenID: uint" style="text;strokeColor=none;fillColor=none;align=left;verticalAlign=top;spacingLeft=4;spacingRight=4;overflow=hidden;rotatable=0;points=[[0,0.5],[1,0.5]];portConstraint=eastwest;whiteSpace=wrap;html=1;" parent="2RG2JbtTriZIpNJXNHU2-5" vertex="1">
          <mxGeometry y="26" width="250" height="26" as="geometry" />
        </mxCell>
        <mxCell id="2RG2JbtTriZIpNJXNHU2-101" value="&lt;div&gt;- vorname: std::string&lt;/div&gt;" style="text;strokeColor=none;fillColor=none;align=left;verticalAlign=top;spacingLeft=4;spacingRight=4;overflow=hidden;rotatable=0;points=[[0,0.5],[1,0.5]];portConstraint=eastwest;whiteSpace=wrap;html=1;" parent="2RG2JbtTriZIpNJXNHU2-5" vertex="1">
          <mxGeometry y="52" width="250" height="26" as="geometry" />
        </mxCell>
        <mxCell id="2RG2JbtTriZIpNJXNHU2-100" value="- nachname: std::string" style="text;strokeColor=none;fillColor=none;align=left;verticalAlign=top;spacingLeft=4;spacingRight=4;overflow=hidden;rotatable=0;points=[[0,0.5],[1,0.5]];portConstraint=eastwest;whiteSpace=wrap;html=1;" parent="2RG2JbtTriZIpNJXNHU2-5" vertex="1">
          <mxGeometry y="78" width="250" height="26" as="geometry" />
        </mxCell>
        <mxCell id="2RG2JbtTriZIpNJXNHU2-6" value="- tagesgeldKonto: Tagesgeldkonto*" style="text;strokeColor=none;fillColor=none;align=left;verticalAlign=top;spacingLeft=4;spacingRight=4;overflow=hidden;rotatable=0;points=[[0,0.5],[1,0.5]];portConstraint=eastwest;whiteSpace=wrap;html=1;" parent="2RG2JbtTriZIpNJXNHU2-5" vertex="1">
          <mxGeometry y="104" width="250" height="26" as="geometry" />
        </mxCell>
        <mxCell id="2RG2JbtTriZIpNJXNHU2-48" value="- festgeldKonto: Festgeldkonto*" style="text;strokeColor=none;fillColor=none;align=left;verticalAlign=top;spacingLeft=4;spacingRight=4;overflow=hidden;rotatable=0;points=[[0,0.5],[1,0.5]];portConstraint=eastwest;whiteSpace=wrap;html=1;" parent="2RG2JbtTriZIpNJXNHU2-5" vertex="1">
          <mxGeometry y="130" width="250" height="26" as="geometry" />
        </mxCell>
        <mxCell id="2RG2JbtTriZIpNJXNHU2-55" value="- giroKonto: Girokonto*" style="text;strokeColor=none;fillColor=none;align=left;verticalAlign=top;spacingLeft=4;spacingRight=4;overflow=hidden;rotatable=0;points=[[0,0.5],[1,0.5]];portConstraint=eastwest;whiteSpace=wrap;html=1;" parent="2RG2JbtTriZIpNJXNHU2-5" vertex="1">
          <mxGeometry y="156" width="250" height="26" as="geometry" />
        </mxCell>
        <mxCell id="2RG2JbtTriZIpNJXNHU2-52" value="- kreditkartenKonto: Kreditkartenkonto*" style="text;strokeColor=none;fillColor=none;align=left;verticalAlign=top;spacingLeft=4;spacingRight=4;overflow=hidden;rotatable=0;points=[[0,0.5],[1,0.5]];portConstraint=eastwest;whiteSpace=wrap;html=1;" parent="2RG2JbtTriZIpNJXNHU2-5" vertex="1">
          <mxGeometry y="182" width="250" height="26" as="geometry" />
        </mxCell>
        <mxCell id="2RG2JbtTriZIpNJXNHU2-7" value="" style="line;strokeWidth=1;fillColor=none;align=left;verticalAlign=middle;spacingTop=-1;spacingLeft=3;spacingRight=3;rotatable=0;labelPosition=right;points=[];portConstraint=eastwest;strokeColor=inherit;" parent="2RG2JbtTriZIpNJXNHU2-5" vertex="1">
          <mxGeometry y="208" width="250" height="8" as="geometry" />
        </mxCell>
        <mxCell id="2RG2JbtTriZIpNJXNHU2-8" value="+ setKundenID(uint): void" style="text;strokeColor=none;fillColor=none;align=left;verticalAlign=top;spacingLeft=4;spacingRight=4;overflow=hidden;rotatable=0;points=[[0,0.5],[1,0.5]];portConstraint=eastwest;whiteSpace=wrap;html=1;" parent="2RG2JbtTriZIpNJXNHU2-5" vertex="1">
          <mxGeometry y="216" width="250" height="26" as="geometry" />
        </mxCell>
        <mxCell id="K2jsW3WkfBgGo3mtC9Qz-21" value="+ getKundenID(): uint" style="text;strokeColor=none;fillColor=none;align=left;verticalAlign=top;spacingLeft=4;spacingRight=4;overflow=hidden;rotatable=0;points=[[0,0.5],[1,0.5]];portConstraint=eastwest;whiteSpace=wrap;html=1;" parent="2RG2JbtTriZIpNJXNHU2-5" vertex="1">
          <mxGeometry y="242" width="250" height="26" as="geometry" />
        </mxCell>
        <mxCell id="2RG2JbtTriZIpNJXNHU2-45" value="+ setVorname(std::string): void" style="text;strokeColor=none;fillColor=none;align=left;verticalAlign=top;spacingLeft=4;spacingRight=4;overflow=hidden;rotatable=0;points=[[0,0.5],[1,0.5]];portConstraint=eastwest;whiteSpace=wrap;html=1;" parent="2RG2JbtTriZIpNJXNHU2-5" vertex="1">
          <mxGeometry y="268" width="250" height="26" as="geometry" />
        </mxCell>
        <mxCell id="K2jsW3WkfBgGo3mtC9Qz-22" value="+ getVorname(): std::string" style="text;strokeColor=none;fillColor=none;align=left;verticalAlign=top;spacingLeft=4;spacingRight=4;overflow=hidden;rotatable=0;points=[[0,0.5],[1,0.5]];portConstraint=eastwest;whiteSpace=wrap;html=1;" parent="2RG2JbtTriZIpNJXNHU2-5" vertex="1">
          <mxGeometry y="294" width="250" height="26" as="geometry" />
        </mxCell>
        <mxCell id="K2jsW3WkfBgGo3mtC9Qz-16" value="+ setNachname(std::string): void" style="text;strokeColor=none;fillColor=none;align=left;verticalAlign=top;spacingLeft=4;spacingRight=4;overflow=hidden;rotatable=0;points=[[0,0.5],[1,0.5]];portConstraint=eastwest;whiteSpace=wrap;html=1;" parent="2RG2JbtTriZIpNJXNHU2-5" vertex="1">
          <mxGeometry y="320" width="250" height="26" as="geometry" />
        </mxCell>
        <mxCell id="K2jsW3WkfBgGo3mtC9Qz-23" value="+ getNachname(): std::string" style="text;strokeColor=none;fillColor=none;align=left;verticalAlign=top;spacingLeft=4;spacingRight=4;overflow=hidden;rotatable=0;points=[[0,0.5],[1,0.5]];portConstraint=eastwest;whiteSpace=wrap;html=1;" parent="2RG2JbtTriZIpNJXNHU2-5" vertex="1">
          <mxGeometry y="346" width="250" height="26" as="geometry" />
        </mxCell>
        <mxCell id="K2jsW3WkfBgGo3mtC9Qz-17" value="+ setTagesgeldKonto(uint): void" style="text;strokeColor=none;fillColor=none;align=left;verticalAlign=top;spacingLeft=4;spacingRight=4;overflow=hidden;rotatable=0;points=[[0,0.5],[1,0.5]];portConstraint=eastwest;whiteSpace=wrap;html=1;" parent="2RG2JbtTriZIpNJXNHU2-5" vertex="1">
          <mxGeometry y="372" width="250" height="26" as="geometry" />
        </mxCell>
        <mxCell id="K2jsW3WkfBgGo3mtC9Qz-24" value="+ getTagesgeldKonto(): Tagesgeldkonto*" style="text;strokeColor=none;fillColor=none;align=left;verticalAlign=top;spacingLeft=4;spacingRight=4;overflow=hidden;rotatable=0;points=[[0,0.5],[1,0.5]];portConstraint=eastwest;whiteSpace=wrap;html=1;" parent="2RG2JbtTriZIpNJXNHU2-5" vertex="1">
          <mxGeometry y="398" width="250" height="26" as="geometry" />
        </mxCell>
        <mxCell id="K2jsW3WkfBgGo3mtC9Qz-18" value="+ setFestgeldKonto(uint): void" style="text;strokeColor=none;fillColor=none;align=left;verticalAlign=top;spacingLeft=4;spacingRight=4;overflow=hidden;rotatable=0;points=[[0,0.5],[1,0.5]];portConstraint=eastwest;whiteSpace=wrap;html=1;" parent="2RG2JbtTriZIpNJXNHU2-5" vertex="1">
          <mxGeometry y="424" width="250" height="26" as="geometry" />
        </mxCell>
        <mxCell id="K2jsW3WkfBgGo3mtC9Qz-25" value="+ getFestgeldKonto(): Festgeldkonto*" style="text;strokeColor=none;fillColor=none;align=left;verticalAlign=top;spacingLeft=4;spacingRight=4;overflow=hidden;rotatable=0;points=[[0,0.5],[1,0.5]];portConstraint=eastwest;whiteSpace=wrap;html=1;" parent="2RG2JbtTriZIpNJXNHU2-5" vertex="1">
          <mxGeometry y="450" width="250" height="26" as="geometry" />
        </mxCell>
        <mxCell id="K2jsW3WkfBgGo3mtC9Qz-20" value="+ setGiroKonto(uint): void" style="text;strokeColor=none;fillColor=none;align=left;verticalAlign=top;spacingLeft=4;spacingRight=4;overflow=hidden;rotatable=0;points=[[0,0.5],[1,0.5]];portConstraint=eastwest;whiteSpace=wrap;html=1;" parent="2RG2JbtTriZIpNJXNHU2-5" vertex="1">
          <mxGeometry y="476" width="250" height="26" as="geometry" />
        </mxCell>
        <mxCell id="K2jsW3WkfBgGo3mtC9Qz-26" value="+ getGiroKonto(): Girokonto*" style="text;strokeColor=none;fillColor=none;align=left;verticalAlign=top;spacingLeft=4;spacingRight=4;overflow=hidden;rotatable=0;points=[[0,0.5],[1,0.5]];portConstraint=eastwest;whiteSpace=wrap;html=1;" parent="2RG2JbtTriZIpNJXNHU2-5" vertex="1">
          <mxGeometry y="502" width="250" height="26" as="geometry" />
        </mxCell>
        <mxCell id="K2jsW3WkfBgGo3mtC9Qz-19" value="+ setKreditKartenKonto(uint): void" style="text;strokeColor=none;fillColor=none;align=left;verticalAlign=top;spacingLeft=4;spacingRight=4;overflow=hidden;rotatable=0;points=[[0,0.5],[1,0.5]];portConstraint=eastwest;whiteSpace=wrap;html=1;" parent="2RG2JbtTriZIpNJXNHU2-5" vertex="1">
          <mxGeometry y="528" width="250" height="26" as="geometry" />
        </mxCell>
        <mxCell id="K2jsW3WkfBgGo3mtC9Qz-27" value="+getKreditKartenKonto(): Kreditkartenkonto*" style="text;strokeColor=none;fillColor=none;align=left;verticalAlign=top;spacingLeft=4;spacingRight=4;overflow=hidden;rotatable=0;points=[[0,0.5],[1,0.5]];portConstraint=eastwest;whiteSpace=wrap;html=1;" parent="2RG2JbtTriZIpNJXNHU2-5" vertex="1">
          <mxGeometry y="554" width="250" height="26" as="geometry" />
        </mxCell>
        <mxCell id="2RG2JbtTriZIpNJXNHU2-9" value="&lt;div&gt;Kreditkarte&lt;/div&gt;" style="swimlane;fontStyle=1;align=center;verticalAlign=top;childLayout=stackLayout;horizontal=1;startSize=26;horizontalStack=0;resizeParent=1;resizeParentMax=0;resizeLast=0;collapsible=1;marginBottom=0;whiteSpace=wrap;html=1;" parent="1" vertex="1">
          <mxGeometry x="1057" y="1120" width="223" height="112" as="geometry" />
        </mxCell>
        <mxCell id="2RG2JbtTriZIpNJXNHU2-95" value="- KREDITKARTEN_NR: std::string" style="text;strokeColor=none;fillColor=none;align=left;verticalAlign=top;spacingLeft=4;spacingRight=4;overflow=hidden;rotatable=0;points=[[0,0.5],[1,0.5]];portConstraint=eastwest;whiteSpace=wrap;html=1;" parent="2RG2JbtTriZIpNJXNHU2-9" vertex="1">
          <mxGeometry y="26" width="223" height="26" as="geometry" />
        </mxCell>
        <mxCell id="2RG2JbtTriZIpNJXNHU2-11" value="" style="line;strokeWidth=1;fillColor=none;align=left;verticalAlign=middle;spacingTop=-1;spacingLeft=3;spacingRight=3;rotatable=0;labelPosition=right;points=[];portConstraint=eastwest;strokeColor=inherit;" parent="2RG2JbtTriZIpNJXNHU2-9" vertex="1">
          <mxGeometry y="52" width="223" height="8" as="geometry" />
        </mxCell>
        <mxCell id="K2jsW3WkfBgGo3mtC9Qz-41" value="- generateKartenNr(): std::string" style="text;strokeColor=none;fillColor=none;align=left;verticalAlign=top;spacingLeft=4;spacingRight=4;overflow=hidden;rotatable=0;points=[[0,0.5],[1,0.5]];portConstraint=eastwest;whiteSpace=wrap;html=1;" parent="2RG2JbtTriZIpNJXNHU2-9" vertex="1">
          <mxGeometry y="60" width="223" height="26" as="geometry" />
        </mxCell>
        <mxCell id="2RG2JbtTriZIpNJXNHU2-96" value="+ getKartenNr(): std::string" style="text;strokeColor=none;fillColor=none;align=left;verticalAlign=top;spacingLeft=4;spacingRight=4;overflow=hidden;rotatable=0;points=[[0,0.5],[1,0.5]];portConstraint=eastwest;whiteSpace=wrap;html=1;" parent="2RG2JbtTriZIpNJXNHU2-9" vertex="1">
          <mxGeometry y="86" width="223" height="26" as="geometry" />
        </mxCell>
        <mxCell id="2RG2JbtTriZIpNJXNHU2-13" value="&lt;div&gt;Konto {abstract}&lt;br&gt;&lt;/div&gt;" style="swimlane;fontStyle=1;align=center;verticalAlign=top;childLayout=stackLayout;horizontal=1;startSize=26;horizontalStack=0;resizeParent=1;resizeParentMax=0;resizeLast=0;collapsible=1;marginBottom=0;whiteSpace=wrap;html=1;" parent="1" vertex="1">
          <mxGeometry x="824" y="308" width="240" height="268" as="geometry" />
        </mxCell>
        <mxCell id="2RG2JbtTriZIpNJXNHU2-14" value="#kontoStand: double" style="text;strokeColor=none;fillColor=none;align=left;verticalAlign=top;spacingLeft=4;spacingRight=4;overflow=hidden;rotatable=0;points=[[0,0.5],[1,0.5]];portConstraint=eastwest;whiteSpace=wrap;html=1;" parent="2RG2JbtTriZIpNJXNHU2-13" vertex="1">
          <mxGeometry y="26" width="240" height="26" as="geometry" />
        </mxCell>
        <mxCell id="2RG2JbtTriZIpNJXNHU2-89" value="#KONTO_NUMMER: uint" style="text;strokeColor=none;fillColor=none;align=left;verticalAlign=top;spacingLeft=4;spacingRight=4;overflow=hidden;rotatable=0;points=[[0,0.5],[1,0.5]];portConstraint=eastwest;whiteSpace=wrap;html=1;" parent="2RG2JbtTriZIpNJXNHU2-13" vertex="1">
          <mxGeometry y="52" width="240" height="26" as="geometry" />
        </mxCell>
        <mxCell id="2RG2JbtTriZIpNJXNHU2-90" value="#gesperrt: bool" style="text;strokeColor=none;fillColor=none;align=left;verticalAlign=top;spacingLeft=4;spacingRight=4;overflow=hidden;rotatable=0;points=[[0,0.5],[1,0.5]];portConstraint=eastwest;whiteSpace=wrap;html=1;" parent="2RG2JbtTriZIpNJXNHU2-13" vertex="1">
          <mxGeometry y="78" width="240" height="26" as="geometry" />
        </mxCell>
        <mxCell id="2RG2JbtTriZIpNJXNHU2-15" value="" style="line;strokeWidth=1;fillColor=none;align=left;verticalAlign=middle;spacingTop=-1;spacingLeft=3;spacingRight=3;rotatable=0;labelPosition=right;points=[];portConstraint=eastwest;strokeColor=inherit;" parent="2RG2JbtTriZIpNJXNHU2-13" vertex="1">
          <mxGeometry y="104" width="240" height="8" as="geometry" />
        </mxCell>
        <mxCell id="2RG2JbtTriZIpNJXNHU2-16" value="+ setKontostand(double): void" style="text;strokeColor=none;fillColor=none;align=left;verticalAlign=top;spacingLeft=4;spacingRight=4;overflow=hidden;rotatable=0;points=[[0,0.5],[1,0.5]];portConstraint=eastwest;whiteSpace=wrap;html=1;" parent="2RG2JbtTriZIpNJXNHU2-13" vertex="1">
          <mxGeometry y="112" width="240" height="26" as="geometry" />
        </mxCell>
        <mxCell id="K2jsW3WkfBgGo3mtC9Qz-31" value="+ getKontostand(): double" style="text;strokeColor=none;fillColor=none;align=left;verticalAlign=top;spacingLeft=4;spacingRight=4;overflow=hidden;rotatable=0;points=[[0,0.5],[1,0.5]];portConstraint=eastwest;whiteSpace=wrap;html=1;" parent="2RG2JbtTriZIpNJXNHU2-13" vertex="1">
          <mxGeometry y="138" width="240" height="26" as="geometry" />
        </mxCell>
        <mxCell id="K2jsW3WkfBgGo3mtC9Qz-32" value="&lt;div&gt;+ setGesperrt(bool): void&lt;/div&gt;" style="text;strokeColor=none;fillColor=none;align=left;verticalAlign=top;spacingLeft=4;spacingRight=4;overflow=hidden;rotatable=0;points=[[0,0.5],[1,0.5]];portConstraint=eastwest;whiteSpace=wrap;html=1;" parent="2RG2JbtTriZIpNJXNHU2-13" vertex="1">
          <mxGeometry y="164" width="240" height="26" as="geometry" />
        </mxCell>
        <mxCell id="K2jsW3WkfBgGo3mtC9Qz-33" value="+ getGesperrt(): bool" style="text;strokeColor=none;fillColor=none;align=left;verticalAlign=top;spacingLeft=4;spacingRight=4;overflow=hidden;rotatable=0;points=[[0,0.5],[1,0.5]];portConstraint=eastwest;whiteSpace=wrap;html=1;" parent="2RG2JbtTriZIpNJXNHU2-13" vertex="1">
          <mxGeometry y="190" width="240" height="26" as="geometry" />
        </mxCell>
        <mxCell id="2RG2JbtTriZIpNJXNHU2-98" value="+ kontoGedeckt(double): bool" style="text;strokeColor=none;fillColor=none;align=left;verticalAlign=top;spacingLeft=4;spacingRight=4;overflow=hidden;rotatable=0;points=[[0,0.5],[1,0.5]];portConstraint=eastwest;whiteSpace=wrap;html=1;" parent="2RG2JbtTriZIpNJXNHU2-13" vertex="1">
          <mxGeometry y="216" width="240" height="26" as="geometry" />
        </mxCell>
        <mxCell id="K2jsW3WkfBgGo3mtC9Qz-3" value="+ verzinsung(): void (virtual)" style="text;strokeColor=none;fillColor=none;align=left;verticalAlign=top;spacingLeft=4;spacingRight=4;overflow=hidden;rotatable=0;points=[[0,0.5],[1,0.5]];portConstraint=eastwest;whiteSpace=wrap;html=1;" parent="2RG2JbtTriZIpNJXNHU2-13" vertex="1">
          <mxGeometry y="242" width="240" height="26" as="geometry" />
        </mxCell>
        <mxCell id="2RG2JbtTriZIpNJXNHU2-17" value="Bankautomat" style="swimlane;fontStyle=1;align=center;verticalAlign=top;childLayout=stackLayout;horizontal=1;startSize=26;horizontalStack=0;resizeParent=1;resizeParentMax=0;resizeLast=0;collapsible=1;marginBottom=0;whiteSpace=wrap;html=1;" parent="1" vertex="1">
          <mxGeometry x="240" y="674" width="280" height="216" as="geometry" />
        </mxCell>
        <mxCell id="2RG2JbtTriZIpNJXNHU2-18" value="- bargeld: double" style="text;strokeColor=none;fillColor=none;align=left;verticalAlign=top;spacingLeft=4;spacingRight=4;overflow=hidden;rotatable=0;points=[[0,0.5],[1,0.5]];portConstraint=eastwest;whiteSpace=wrap;html=1;" parent="2RG2JbtTriZIpNJXNHU2-17" vertex="1">
          <mxGeometry y="26" width="280" height="26" as="geometry" />
        </mxCell>
        <mxCell id="K2jsW3WkfBgGo3mtC9Qz-10" value="- automatID: uint" style="text;strokeColor=none;fillColor=none;align=left;verticalAlign=top;spacingLeft=4;spacingRight=4;overflow=hidden;rotatable=0;points=[[0,0.5],[1,0.5]];portConstraint=eastwest;whiteSpace=wrap;html=1;" parent="2RG2JbtTriZIpNJXNHU2-17" vertex="1">
          <mxGeometry y="52" width="280" height="26" as="geometry" />
        </mxCell>
        <mxCell id="2RG2JbtTriZIpNJXNHU2-19" value="" style="line;strokeWidth=1;fillColor=none;align=left;verticalAlign=middle;spacingTop=-1;spacingLeft=3;spacingRight=3;rotatable=0;labelPosition=right;points=[];portConstraint=eastwest;strokeColor=inherit;" parent="2RG2JbtTriZIpNJXNHU2-17" vertex="1">
          <mxGeometry y="78" width="280" height="8" as="geometry" />
        </mxCell>
        <mxCell id="2RG2JbtTriZIpNJXNHU2-99" value="+ getBargeld(): double" style="text;strokeColor=none;fillColor=none;align=left;verticalAlign=top;spacingLeft=4;spacingRight=4;overflow=hidden;rotatable=0;points=[[0,0.5],[1,0.5]];portConstraint=eastwest;whiteSpace=wrap;html=1;" parent="2RG2JbtTriZIpNJXNHU2-17" vertex="1">
          <mxGeometry y="86" width="280" height="26" as="geometry" />
        </mxCell>
        <mxCell id="2RG2JbtTriZIpNJXNHU2-20" value="&lt;div&gt;+ setBargeld(double): void&lt;/div&gt;" style="text;strokeColor=none;fillColor=none;align=left;verticalAlign=top;spacingLeft=4;spacingRight=4;overflow=hidden;rotatable=0;points=[[0,0.5],[1,0.5]];portConstraint=eastwest;whiteSpace=wrap;html=1;" parent="2RG2JbtTriZIpNJXNHU2-17" vertex="1">
          <mxGeometry y="112" width="280" height="26" as="geometry" />
        </mxCell>
        <mxCell id="K2jsW3WkfBgGo3mtC9Qz-30" value="+ setAutomatID(uint): void" style="text;strokeColor=none;fillColor=none;align=left;verticalAlign=top;spacingLeft=4;spacingRight=4;overflow=hidden;rotatable=0;points=[[0,0.5],[1,0.5]];portConstraint=eastwest;whiteSpace=wrap;html=1;" parent="2RG2JbtTriZIpNJXNHU2-17" vertex="1">
          <mxGeometry y="138" width="280" height="26" as="geometry" />
        </mxCell>
        <mxCell id="K2jsW3WkfBgGo3mtC9Qz-29" value="+ getAutomatID(): uint" style="text;strokeColor=none;fillColor=none;align=left;verticalAlign=top;spacingLeft=4;spacingRight=4;overflow=hidden;rotatable=0;points=[[0,0.5],[1,0.5]];portConstraint=eastwest;whiteSpace=wrap;html=1;" parent="2RG2JbtTriZIpNJXNHU2-17" vertex="1">
          <mxGeometry y="164" width="280" height="26" as="geometry" />
        </mxCell>
        <mxCell id="2RG2JbtTriZIpNJXNHU2-102" value="+ auszahlen(Bankkunde*, int betrag, uint pin): int " style="text;strokeColor=none;fillColor=none;align=left;verticalAlign=top;spacingLeft=4;spacingRight=4;overflow=hidden;rotatable=0;points=[[0,0.5],[1,0.5]];portConstraint=eastwest;whiteSpace=wrap;html=1;" parent="2RG2JbtTriZIpNJXNHU2-17" vertex="1">
          <mxGeometry y="190" width="280" height="26" as="geometry" />
        </mxCell>
        <mxCell id="2RG2JbtTriZIpNJXNHU2-21" value="Girokonto" style="swimlane;fontStyle=1;align=center;verticalAlign=top;childLayout=stackLayout;horizontal=1;startSize=26;horizontalStack=0;resizeParent=1;resizeParentMax=0;resizeLast=0;collapsible=1;marginBottom=0;whiteSpace=wrap;html=1;" parent="1" vertex="1">
          <mxGeometry x="1130" y="640" width="160" height="86" as="geometry" />
        </mxCell>
        <mxCell id="2RG2JbtTriZIpNJXNHU2-22" value="- girokarte: Girokarte" style="text;strokeColor=none;fillColor=none;align=left;verticalAlign=top;spacingLeft=4;spacingRight=4;overflow=hidden;rotatable=0;points=[[0,0.5],[1,0.5]];portConstraint=eastwest;whiteSpace=wrap;html=1;" parent="2RG2JbtTriZIpNJXNHU2-21" vertex="1">
          <mxGeometry y="26" width="160" height="26" as="geometry" />
        </mxCell>
        <mxCell id="2RG2JbtTriZIpNJXNHU2-23" value="" style="line;strokeWidth=1;fillColor=none;align=left;verticalAlign=middle;spacingTop=-1;spacingLeft=3;spacingRight=3;rotatable=0;labelPosition=right;points=[];portConstraint=eastwest;strokeColor=inherit;" parent="2RG2JbtTriZIpNJXNHU2-21" vertex="1">
          <mxGeometry y="52" width="160" height="8" as="geometry" />
        </mxCell>
        <mxCell id="2RG2JbtTriZIpNJXNHU2-24" value="+ generateKarte(): void" style="text;strokeColor=none;fillColor=none;align=left;verticalAlign=top;spacingLeft=4;spacingRight=4;overflow=hidden;rotatable=0;points=[[0,0.5],[1,0.5]];portConstraint=eastwest;whiteSpace=wrap;html=1;" parent="2RG2JbtTriZIpNJXNHU2-21" vertex="1">
          <mxGeometry y="60" width="160" height="26" as="geometry" />
        </mxCell>
        <mxCell id="2RG2JbtTriZIpNJXNHU2-29" value="Festgeldkonto" style="swimlane;fontStyle=1;align=center;verticalAlign=top;childLayout=stackLayout;horizontal=1;startSize=26;horizontalStack=0;resizeParent=1;resizeParentMax=0;resizeLast=0;collapsible=1;marginBottom=0;whiteSpace=wrap;html=1;" parent="1" vertex="1">
          <mxGeometry x="730" y="640" width="195" height="112" as="geometry" />
        </mxCell>
        <mxCell id="K2jsW3WkfBgGo3mtC9Qz-42" value="- anlageDatum: Date" style="text;strokeColor=none;fillColor=none;align=left;verticalAlign=top;spacingLeft=4;spacingRight=4;overflow=hidden;rotatable=0;points=[[0,0.5],[1,0.5]];portConstraint=eastwest;whiteSpace=wrap;html=1;" parent="2RG2JbtTriZIpNJXNHU2-29" vertex="1">
          <mxGeometry y="26" width="195" height="26" as="geometry" />
        </mxCell>
        <mxCell id="K2jsW3WkfBgGo3mtC9Qz-45" value="- ZINSSATZ: float" style="text;strokeColor=none;fillColor=none;align=left;verticalAlign=top;spacingLeft=4;spacingRight=4;overflow=hidden;rotatable=0;points=[[0,0.5],[1,0.5]];portConstraint=eastwest;whiteSpace=wrap;html=1;" parent="2RG2JbtTriZIpNJXNHU2-29" vertex="1">
          <mxGeometry y="52" width="195" height="26" as="geometry" />
        </mxCell>
        <mxCell id="2RG2JbtTriZIpNJXNHU2-31" value="" style="line;strokeWidth=1;fillColor=none;align=left;verticalAlign=middle;spacingTop=-1;spacingLeft=3;spacingRight=3;rotatable=0;labelPosition=right;points=[];portConstraint=eastwest;strokeColor=inherit;" parent="2RG2JbtTriZIpNJXNHU2-29" vertex="1">
          <mxGeometry y="78" width="195" height="8" as="geometry" />
        </mxCell>
        <mxCell id="K2jsW3WkfBgGo3mtC9Qz-43" value="+ item: attribute" style="text;strokeColor=none;fillColor=none;align=left;verticalAlign=top;spacingLeft=4;spacingRight=4;overflow=hidden;rotatable=0;points=[[0,0.5],[1,0.5]];portConstraint=eastwest;whiteSpace=wrap;html=1;" parent="2RG2JbtTriZIpNJXNHU2-29" vertex="1">
          <mxGeometry y="86" width="195" height="26" as="geometry" />
        </mxCell>
        <mxCell id="2RG2JbtTriZIpNJXNHU2-33" value="Tagesgeldkonto" style="swimlane;fontStyle=1;align=center;verticalAlign=top;childLayout=stackLayout;horizontal=1;startSize=26;horizontalStack=0;resizeParent=1;resizeParentMax=0;resizeLast=0;collapsible=1;marginBottom=0;whiteSpace=wrap;html=1;" parent="1" vertex="1">
          <mxGeometry x="550" y="640" width="160" height="112" as="geometry" />
        </mxCell>
        <mxCell id="2RG2JbtTriZIpNJXNHU2-34" value="- anlageDatum: Date" style="text;strokeColor=none;fillColor=none;align=left;verticalAlign=top;spacingLeft=4;spacingRight=4;overflow=hidden;rotatable=0;points=[[0,0.5],[1,0.5]];portConstraint=eastwest;whiteSpace=wrap;html=1;" parent="2RG2JbtTriZIpNJXNHU2-33" vertex="1">
          <mxGeometry y="26" width="160" height="26" as="geometry" />
        </mxCell>
        <mxCell id="K2jsW3WkfBgGo3mtC9Qz-46" value="- ZINSSATZ: float" style="text;strokeColor=none;fillColor=none;align=left;verticalAlign=top;spacingLeft=4;spacingRight=4;overflow=hidden;rotatable=0;points=[[0,0.5],[1,0.5]];portConstraint=eastwest;whiteSpace=wrap;html=1;" parent="2RG2JbtTriZIpNJXNHU2-33" vertex="1">
          <mxGeometry y="52" width="160" height="26" as="geometry" />
        </mxCell>
        <mxCell id="2RG2JbtTriZIpNJXNHU2-35" value="" style="line;strokeWidth=1;fillColor=none;align=left;verticalAlign=middle;spacingTop=-1;spacingLeft=3;spacingRight=3;rotatable=0;labelPosition=right;points=[];portConstraint=eastwest;strokeColor=inherit;" parent="2RG2JbtTriZIpNJXNHU2-33" vertex="1">
          <mxGeometry y="78" width="160" height="8" as="geometry" />
        </mxCell>
        <mxCell id="2RG2JbtTriZIpNJXNHU2-36" value="+ method(type): type" style="text;strokeColor=none;fillColor=none;align=left;verticalAlign=top;spacingLeft=4;spacingRight=4;overflow=hidden;rotatable=0;points=[[0,0.5],[1,0.5]];portConstraint=eastwest;whiteSpace=wrap;html=1;" parent="2RG2JbtTriZIpNJXNHU2-33" vertex="1">
          <mxGeometry y="86" width="160" height="26" as="geometry" />
        </mxCell>
        <mxCell id="2RG2JbtTriZIpNJXNHU2-37" value="Extends" style="endArrow=block;endSize=16;endFill=0;html=1;rounded=0;entryX=0.003;entryY=1.142;entryDx=0;entryDy=0;entryPerimeter=0;" parent="1" source="2RG2JbtTriZIpNJXNHU2-33" target="K2jsW3WkfBgGo3mtC9Qz-3" edge="1">
          <mxGeometry width="160" relative="1" as="geometry">
            <mxPoint x="995" y="734" as="sourcePoint" />
            <mxPoint x="1155" y="734" as="targetPoint" />
          </mxGeometry>
        </mxCell>
        <mxCell id="2RG2JbtTriZIpNJXNHU2-38" value="Extends" style="endArrow=block;endSize=16;endFill=0;html=1;rounded=0;exitX=0.535;exitY=0.031;exitDx=0;exitDy=0;exitPerimeter=0;entryX=0.271;entryY=1.06;entryDx=0;entryDy=0;entryPerimeter=0;" parent="1" source="2RG2JbtTriZIpNJXNHU2-29" target="K2jsW3WkfBgGo3mtC9Qz-3" edge="1">
          <mxGeometry x="-0.1955" y="-5" width="160" relative="1" as="geometry">
            <mxPoint x="1185" y="752" as="sourcePoint" />
            <mxPoint x="1315" y="685" as="targetPoint" />
            <mxPoint as="offset" />
          </mxGeometry>
        </mxCell>
        <mxCell id="2RG2JbtTriZIpNJXNHU2-39" value="Extends" style="endArrow=block;endSize=16;endFill=0;html=1;rounded=0;exitX=0.406;exitY=0.023;exitDx=0;exitDy=0;exitPerimeter=0;entryX=0.623;entryY=0.978;entryDx=0;entryDy=0;entryPerimeter=0;" parent="1" source="2RG2JbtTriZIpNJXNHU2-25" target="K2jsW3WkfBgGo3mtC9Qz-3" edge="1">
          <mxGeometry x="-0.5241" y="-12" width="160" relative="1" as="geometry">
            <mxPoint x="1355" y="751" as="sourcePoint" />
            <mxPoint x="1485" y="684" as="targetPoint" />
            <mxPoint as="offset" />
          </mxGeometry>
        </mxCell>
        <mxCell id="2RG2JbtTriZIpNJXNHU2-40" value="Extends" style="endArrow=block;endSize=16;endFill=0;html=1;rounded=0;entryX=0.997;entryY=1.019;entryDx=0;entryDy=0;entryPerimeter=0;" parent="1" source="2RG2JbtTriZIpNJXNHU2-21" target="K2jsW3WkfBgGo3mtC9Qz-3" edge="1">
          <mxGeometry width="160" relative="1" as="geometry">
            <mxPoint x="1515" y="743" as="sourcePoint" />
            <mxPoint x="1645" y="676" as="targetPoint" />
          </mxGeometry>
        </mxCell>
        <mxCell id="2RG2JbtTriZIpNJXNHU2-41" value="" style="endArrow=diamondThin;endFill=1;endSize=24;html=1;rounded=0;entryX=0.154;entryY=0.004;entryDx=0;entryDy=0;entryPerimeter=0;exitX=0.875;exitY=1.284;exitDx=0;exitDy=0;exitPerimeter=0;" parent="1" source="2RG2JbtTriZIpNJXNHU2-36" target="2RG2JbtTriZIpNJXNHU2-5" edge="1">
          <mxGeometry width="160" relative="1" as="geometry">
            <mxPoint x="639.38" y="488.20547945205476" as="sourcePoint" />
            <mxPoint x="400.005" y="420" as="targetPoint" />
            <Array as="points">
              <mxPoint x="829" y="820" />
            </Array>
          </mxGeometry>
        </mxCell>
        <mxCell id="2RG2JbtTriZIpNJXNHU2-62" value="0..1" style="edgeLabel;html=1;align=center;verticalAlign=middle;resizable=0;points=[];" parent="2RG2JbtTriZIpNJXNHU2-41" vertex="1" connectable="0">
          <mxGeometry x="-0.851" y="-3" relative="1" as="geometry">
            <mxPoint as="offset" />
          </mxGeometry>
        </mxCell>
        <mxCell id="2RG2JbtTriZIpNJXNHU2-53" value="" style="endArrow=diamondThin;endFill=1;endSize=24;html=1;rounded=0;entryX=0.63;entryY=0;entryDx=0;entryDy=0;entryPerimeter=0;" parent="1" source="2RG2JbtTriZIpNJXNHU2-25" target="2RG2JbtTriZIpNJXNHU2-5" edge="1">
          <mxGeometry width="160" relative="1" as="geometry">
            <mxPoint x="891" y="644" as="sourcePoint" />
            <mxPoint x="450" y="270" as="targetPoint" />
            <Array as="points">
              <mxPoint x="948" y="790" />
            </Array>
          </mxGeometry>
        </mxCell>
        <mxCell id="2RG2JbtTriZIpNJXNHU2-64" value="0..1" style="edgeLabel;html=1;align=center;verticalAlign=middle;resizable=0;points=[];" parent="2RG2JbtTriZIpNJXNHU2-53" vertex="1" connectable="0">
          <mxGeometry x="-0.7287" relative="1" as="geometry">
            <mxPoint y="-1" as="offset" />
          </mxGeometry>
        </mxCell>
        <mxCell id="2RG2JbtTriZIpNJXNHU2-54" value="" style="endArrow=diamondThin;endFill=1;endSize=24;html=1;rounded=0;exitX=0.118;exitY=1.146;exitDx=0;exitDy=0;exitPerimeter=0;entryX=0.855;entryY=0.001;entryDx=0;entryDy=0;entryPerimeter=0;" parent="1" source="2RG2JbtTriZIpNJXNHU2-24" target="2RG2JbtTriZIpNJXNHU2-5" edge="1">
          <mxGeometry width="160" relative="1" as="geometry">
            <mxPoint x="1270" y="810" as="sourcePoint" />
            <mxPoint x="1020" y="860" as="targetPoint" />
            <Array as="points">
              <mxPoint x="1004" y="810" />
            </Array>
          </mxGeometry>
        </mxCell>
        <mxCell id="_i0TJnSxcOvFbVR11NPT-3" value="0..1" style="edgeLabel;html=1;align=center;verticalAlign=middle;resizable=0;points=[];" parent="2RG2JbtTriZIpNJXNHU2-54" vertex="1" connectable="0">
          <mxGeometry x="-0.7234" y="-1" relative="1" as="geometry">
            <mxPoint as="offset" />
          </mxGeometry>
        </mxCell>
        <mxCell id="2RG2JbtTriZIpNJXNHU2-59" value="" style="endArrow=diamondThin;endFill=1;endSize=24;html=1;rounded=0;" parent="1" source="2RG2JbtTriZIpNJXNHU2-17" target="2RG2JbtTriZIpNJXNHU2-1" edge="1">
          <mxGeometry width="160" relative="1" as="geometry">
            <mxPoint x="330" y="790" as="sourcePoint" />
            <mxPoint x="438" y="901" as="targetPoint" />
          </mxGeometry>
        </mxCell>
        <mxCell id="2RG2JbtTriZIpNJXNHU2-61" value="&lt;div&gt;1..n&lt;/div&gt;" style="edgeLabel;html=1;align=center;verticalAlign=middle;resizable=0;points=[];" parent="2RG2JbtTriZIpNJXNHU2-59" vertex="1" connectable="0">
          <mxGeometry x="-0.6721" y="-2" relative="1" as="geometry">
            <mxPoint as="offset" />
          </mxGeometry>
        </mxCell>
        <mxCell id="2RG2JbtTriZIpNJXNHU2-66" value="" style="endArrow=diamondThin;endFill=1;endSize=24;html=1;rounded=0;" parent="1" source="2RG2JbtTriZIpNJXNHU2-5" target="2RG2JbtTriZIpNJXNHU2-1" edge="1">
          <mxGeometry width="160" relative="1" as="geometry">
            <mxPoint x="620" y="850" as="sourcePoint" />
            <mxPoint x="728" y="961" as="targetPoint" />
          </mxGeometry>
        </mxCell>
        <mxCell id="2RG2JbtTriZIpNJXNHU2-69" value="1" style="edgeLabel;html=1;align=center;verticalAlign=middle;resizable=0;points=[];" parent="2RG2JbtTriZIpNJXNHU2-66" vertex="1" connectable="0">
          <mxGeometry x="0.5474" y="-1" relative="1" as="geometry">
            <mxPoint as="offset" />
          </mxGeometry>
        </mxCell>
        <mxCell id="2RG2JbtTriZIpNJXNHU2-70" value="&lt;div&gt;0..n&lt;br&gt;&lt;/div&gt;" style="edgeLabel;html=1;align=center;verticalAlign=middle;resizable=0;points=[];" parent="2RG2JbtTriZIpNJXNHU2-66" vertex="1" connectable="0">
          <mxGeometry x="-0.7466" y="-2" relative="1" as="geometry">
            <mxPoint as="offset" />
          </mxGeometry>
        </mxCell>
        <mxCell id="2RG2JbtTriZIpNJXNHU2-71" value="" style="endArrow=diamondThin;endFill=1;endSize=24;html=1;rounded=0;" parent="1" source="2RG2JbtTriZIpNJXNHU2-9" target="2RG2JbtTriZIpNJXNHU2-25" edge="1">
          <mxGeometry width="160" relative="1" as="geometry">
            <mxPoint x="1050" y="880" as="sourcePoint" />
            <mxPoint x="1158" y="991" as="targetPoint" />
            <Array as="points">
              <mxPoint x="1169" y="900" />
            </Array>
          </mxGeometry>
        </mxCell>
        <mxCell id="2RG2JbtTriZIpNJXNHU2-78" value="Karte {abstract} " style="swimlane;fontStyle=1;align=center;verticalAlign=top;childLayout=stackLayout;horizontal=1;startSize=26;horizontalStack=0;resizeParent=1;resizeParentMax=0;resizeLast=0;collapsible=1;marginBottom=0;whiteSpace=wrap;html=1;" parent="1" vertex="1">
          <mxGeometry x="1196" y="767" width="234" height="190" as="geometry" />
        </mxCell>
        <mxCell id="2RG2JbtTriZIpNJXNHU2-97" value="# gesperrt: bool" style="text;strokeColor=none;fillColor=none;align=left;verticalAlign=top;spacingLeft=4;spacingRight=4;overflow=hidden;rotatable=0;points=[[0,0.5],[1,0.5]];portConstraint=eastwest;whiteSpace=wrap;html=1;" parent="2RG2JbtTriZIpNJXNHU2-78" vertex="1">
          <mxGeometry y="26" width="234" height="26" as="geometry" />
        </mxCell>
        <mxCell id="2RG2JbtTriZIpNJXNHU2-92" value="# KARTEN_ID: uint" style="text;strokeColor=none;fillColor=none;align=left;verticalAlign=top;spacingLeft=4;spacingRight=4;overflow=hidden;rotatable=0;points=[[0,0.5],[1,0.5]];portConstraint=eastwest;whiteSpace=wrap;html=1;" parent="2RG2JbtTriZIpNJXNHU2-78" vertex="1">
          <mxGeometry y="52" width="234" height="26" as="geometry" />
        </mxCell>
        <mxCell id="2RG2JbtTriZIpNJXNHU2-80" value="" style="line;strokeWidth=1;fillColor=none;align=left;verticalAlign=middle;spacingTop=-1;spacingLeft=3;spacingRight=3;rotatable=0;labelPosition=right;points=[];portConstraint=eastwest;strokeColor=inherit;" parent="2RG2JbtTriZIpNJXNHU2-78" vertex="1">
          <mxGeometry y="78" width="234" height="8" as="geometry" />
        </mxCell>
        <mxCell id="K2jsW3WkfBgGo3mtC9Qz-36" value="+ setGesperrt(bool): void" style="text;strokeColor=none;fillColor=none;align=left;verticalAlign=top;spacingLeft=4;spacingRight=4;overflow=hidden;rotatable=0;points=[[0,0.5],[1,0.5]];portConstraint=eastwest;whiteSpace=wrap;html=1;" parent="2RG2JbtTriZIpNJXNHU2-78" vertex="1">
          <mxGeometry y="86" width="234" height="26" as="geometry" />
        </mxCell>
        <mxCell id="K2jsW3WkfBgGo3mtC9Qz-37" value="+ getGesperrt(): bool" style="text;strokeColor=none;fillColor=none;align=left;verticalAlign=top;spacingLeft=4;spacingRight=4;overflow=hidden;rotatable=0;points=[[0,0.5],[1,0.5]];portConstraint=eastwest;whiteSpace=wrap;html=1;" parent="2RG2JbtTriZIpNJXNHU2-78" vertex="1">
          <mxGeometry y="112" width="234" height="26" as="geometry" />
        </mxCell>
        <mxCell id="K2jsW3WkfBgGo3mtC9Qz-39" value="+ getKartenID(): uint" style="text;strokeColor=none;fillColor=none;align=left;verticalAlign=top;spacingLeft=4;spacingRight=4;overflow=hidden;rotatable=0;points=[[0,0.5],[1,0.5]];portConstraint=eastwest;whiteSpace=wrap;html=1;" parent="2RG2JbtTriZIpNJXNHU2-78" vertex="1">
          <mxGeometry y="138" width="234" height="26" as="geometry" />
        </mxCell>
        <mxCell id="2RG2JbtTriZIpNJXNHU2-104" value="+ kartenCheck(): bool&amp;nbsp; &amp;nbsp;// pruefziffercheck" style="text;strokeColor=none;fillColor=none;align=left;verticalAlign=top;spacingLeft=4;spacingRight=4;overflow=hidden;rotatable=0;points=[[0,0.5],[1,0.5]];portConstraint=eastwest;whiteSpace=wrap;html=1;" parent="2RG2JbtTriZIpNJXNHU2-78" vertex="1">
          <mxGeometry y="164" width="234" height="26" as="geometry" />
        </mxCell>
        <mxCell id="2RG2JbtTriZIpNJXNHU2-82" value="Extends" style="endArrow=block;endSize=16;endFill=0;html=1;rounded=0;" parent="1" source="2RG2JbtTriZIpNJXNHU2-9" target="2RG2JbtTriZIpNJXNHU2-78" edge="1">
          <mxGeometry width="160" relative="1" as="geometry">
            <mxPoint x="1510" y="900" as="sourcePoint" />
            <mxPoint x="1670" y="900" as="targetPoint" />
          </mxGeometry>
        </mxCell>
        <mxCell id="2RG2JbtTriZIpNJXNHU2-83" value="Girokarte" style="swimlane;fontStyle=1;align=center;verticalAlign=top;childLayout=stackLayout;horizontal=1;startSize=26;horizontalStack=0;resizeParent=1;resizeParentMax=0;resizeLast=0;collapsible=1;marginBottom=0;whiteSpace=wrap;html=1;" parent="1" vertex="1">
          <mxGeometry x="1360" y="1120" width="160" height="112" as="geometry" />
        </mxCell>
        <mxCell id="K2jsW3WkfBgGo3mtC9Qz-44" value="- PIN: uint" style="text;strokeColor=none;fillColor=none;align=left;verticalAlign=top;spacingLeft=4;spacingRight=4;overflow=hidden;rotatable=0;points=[[0,0.5],[1,0.5]];portConstraint=eastwest;whiteSpace=wrap;html=1;" parent="2RG2JbtTriZIpNJXNHU2-83" vertex="1">
          <mxGeometry y="26" width="160" height="26" as="geometry" />
        </mxCell>
        <mxCell id="2RG2JbtTriZIpNJXNHU2-85" value="" style="line;strokeWidth=1;fillColor=none;align=left;verticalAlign=middle;spacingTop=-1;spacingLeft=3;spacingRight=3;rotatable=0;labelPosition=right;points=[];portConstraint=eastwest;strokeColor=inherit;" parent="2RG2JbtTriZIpNJXNHU2-83" vertex="1">
          <mxGeometry y="52" width="160" height="8" as="geometry" />
        </mxCell>
        <mxCell id="2RG2JbtTriZIpNJXNHU2-81" value="&lt;div&gt;+ setPIN(uint): void&lt;/div&gt;" style="text;strokeColor=none;fillColor=none;align=left;verticalAlign=top;spacingLeft=4;spacingRight=4;overflow=hidden;rotatable=0;points=[[0,0.5],[1,0.5]];portConstraint=eastwest;whiteSpace=wrap;html=1;" parent="2RG2JbtTriZIpNJXNHU2-83" vertex="1">
          <mxGeometry y="60" width="160" height="26" as="geometry" />
        </mxCell>
        <mxCell id="K2jsW3WkfBgGo3mtC9Qz-34" value="+ getPIN(): uint" style="text;strokeColor=none;fillColor=none;align=left;verticalAlign=top;spacingLeft=4;spacingRight=4;overflow=hidden;rotatable=0;points=[[0,0.5],[1,0.5]];portConstraint=eastwest;whiteSpace=wrap;html=1;" parent="2RG2JbtTriZIpNJXNHU2-83" vertex="1">
          <mxGeometry y="86" width="160" height="26" as="geometry" />
        </mxCell>
        <mxCell id="2RG2JbtTriZIpNJXNHU2-87" value="Extends" style="endArrow=block;endSize=16;endFill=0;html=1;rounded=0;" parent="1" source="2RG2JbtTriZIpNJXNHU2-83" target="2RG2JbtTriZIpNJXNHU2-78" edge="1">
          <mxGeometry width="160" relative="1" as="geometry">
            <mxPoint x="1361" y="934" as="sourcePoint" />
            <mxPoint x="1310" y="860" as="targetPoint" />
          </mxGeometry>
        </mxCell>
        <mxCell id="2RG2JbtTriZIpNJXNHU2-25" value="&lt;div&gt;Kreditkartenkonto&lt;/div&gt;" style="swimlane;fontStyle=1;align=center;verticalAlign=top;childLayout=stackLayout;horizontal=1;startSize=26;horizontalStack=0;resizeParent=1;resizeParentMax=0;resizeLast=0;collapsible=1;marginBottom=0;whiteSpace=wrap;html=1;" parent="1" vertex="1">
          <mxGeometry x="950" y="640" width="160" height="86" as="geometry" />
        </mxCell>
        <mxCell id="2RG2JbtTriZIpNJXNHU2-26" value="- kreditkarte: Kreditkarte" style="text;strokeColor=none;fillColor=none;align=left;verticalAlign=top;spacingLeft=4;spacingRight=4;overflow=hidden;rotatable=0;points=[[0,0.5],[1,0.5]];portConstraint=eastwest;whiteSpace=wrap;html=1;" parent="2RG2JbtTriZIpNJXNHU2-25" vertex="1">
          <mxGeometry y="26" width="160" height="26" as="geometry" />
        </mxCell>
        <mxCell id="2RG2JbtTriZIpNJXNHU2-27" value="" style="line;strokeWidth=1;fillColor=none;align=left;verticalAlign=middle;spacingTop=-1;spacingLeft=3;spacingRight=3;rotatable=0;labelPosition=right;points=[];portConstraint=eastwest;strokeColor=inherit;" parent="2RG2JbtTriZIpNJXNHU2-25" vertex="1">
          <mxGeometry y="52" width="160" height="8" as="geometry" />
        </mxCell>
        <mxCell id="2RG2JbtTriZIpNJXNHU2-28" value="+ generateKarte(): void" style="text;strokeColor=none;fillColor=none;align=left;verticalAlign=top;spacingLeft=4;spacingRight=4;overflow=hidden;rotatable=0;points=[[0,0.5],[1,0.5]];portConstraint=eastwest;whiteSpace=wrap;html=1;" parent="2RG2JbtTriZIpNJXNHU2-25" vertex="1">
          <mxGeometry y="60" width="160" height="26" as="geometry" />
        </mxCell>
        <mxCell id="2RG2JbtTriZIpNJXNHU2-88" value="" style="endArrow=diamondThin;endFill=1;endSize=24;html=1;rounded=0;exitX=0.75;exitY=0;exitDx=0;exitDy=0;" parent="1" source="2RG2JbtTriZIpNJXNHU2-83" target="2RG2JbtTriZIpNJXNHU2-21" edge="1">
          <mxGeometry width="160" relative="1" as="geometry">
            <mxPoint x="1381" y="970" as="sourcePoint" />
            <mxPoint x="1275" y="763" as="targetPoint" />
            <Array as="points">
              <mxPoint x="1480" y="683" />
            </Array>
          </mxGeometry>
        </mxCell>
        <mxCell id="K2jsW3WkfBgGo3mtC9Qz-47" value="" style="group" parent="1" vertex="1" connectable="0">
          <mxGeometry x="839.9979295105123" y="782.0015587083727" as="geometry" />
        </mxCell>
        <mxCell id="2RG2JbtTriZIpNJXNHU2-50" value="" style="endArrow=diamondThin;endFill=1;endSize=24;html=1;rounded=0;entryX=0.409;entryY=0.004;entryDx=0;entryDy=0;entryPerimeter=0;exitX=0.711;exitY=0.955;exitDx=0;exitDy=0;exitPerimeter=0;" parent="1" source="K2jsW3WkfBgGo3mtC9Qz-43" target="2RG2JbtTriZIpNJXNHU2-5" edge="1">
          <mxGeometry width="160" relative="1" as="geometry">
            <mxPoint x="845.9965501165501" y="776" as="sourcePoint" />
            <mxPoint x="860.9907226107226" y="859" as="targetPoint" />
            <Array as="points">
              <mxPoint x="890" y="790" />
            </Array>
          </mxGeometry>
        </mxCell>
        <mxCell id="_i0TJnSxcOvFbVR11NPT-2" value="0..1" style="edgeLabel;html=1;align=center;verticalAlign=middle;resizable=0;points=[];" parent="2RG2JbtTriZIpNJXNHU2-50" vertex="1" connectable="0">
          <mxGeometry x="-0.5554" y="1" relative="1" as="geometry">
            <mxPoint as="offset" />
          </mxGeometry>
        </mxCell>
        <mxCell id="O11gvp8hIQGyZpZUcfBb-1" value="Verzinsung muss hier raus&lt;br&gt;Muss die abstrakte Klasse unbedingt existieren?&lt;br&gt;(Idee war ursprünglich Redundanz vermeiden).&lt;br&gt;Interface Segregation Principle wurde hier verletzt" style="html=1;dropTarget=0;whiteSpace=wrap;" parent="1" vertex="1">
          <mxGeometry x="560" y="472" width="220" height="104" as="geometry" />
        </mxCell>
        <mxCell id="O11gvp8hIQGyZpZUcfBb-2" value="" style="shape=module;jettyWidth=8;jettyHeight=4;" parent="O11gvp8hIQGyZpZUcfBb-1" vertex="1">
          <mxGeometry x="1" width="20" height="20" relative="1" as="geometry">
            <mxPoint x="-27" y="7" as="offset" />
          </mxGeometry>
        </mxCell>
        <mxCell id="O11gvp8hIQGyZpZUcfBb-3" style="edgeStyle=orthogonalEdgeStyle;rounded=0;orthogonalLoop=1;jettySize=auto;html=1;exitX=0;exitY=0;exitDx=0;exitDy=6;exitPerimeter=0;" parent="1" source="O11gvp8hIQGyZpZUcfBb-2" target="K2jsW3WkfBgGo3mtC9Qz-3" edge="1">
          <mxGeometry relative="1" as="geometry">
            <Array as="points">
              <mxPoint x="793" y="530" />
              <mxPoint x="810" y="530" />
              <mxPoint x="810" y="563" />
            </Array>
          </mxGeometry>
        </mxCell>
      </root>
    </mxGraphModel>
  </diagram>
</mxfile>
